<svg height="512pt" viewBox="-18 0 512 512.00001" width="512pt" xmlns="http://www.w3.org/2000/svg"><path d="m236.597656 426.667969h233.5625c3.957032 0 6.894532-3.660157 6.035156-7.519531l-25.265624-113.703126h-220.238282l-.277344 115.027344c-.007812 3.421875 2.761719 6.195313 6.183594 6.195313zm0 0" fill="#fda400"/><path d="m476.195312 419.148438-25.265624-113.699219h-24.726563l25.265625 113.699219c.859375 3.859374-2.078125 7.523437-6.03125 7.523437h24.722656c3.957032-.003906 6.894532-3.664063 6.035156-7.523437zm0 0" fill="#fd7e00"/><path d="m280.140625 170.859375v68.65625h171.046875l25.007812-112.53125c.859376-3.859375-2.078124-7.519531-6.03125-7.519531h-180.03125zm0 0" fill="#2b2b2b"/><path d="m470.160156 119.464844h-24.722656c3.953125 0 6.890625 3.660156 6.03125 7.519531l-25.003906 112.53125h24.722656l25.007812-112.53125c.859376-3.859375-2.078124-7.519531-6.035156-7.519531zm0 0" fill="#1f1f1f"/><path d="m455.113281 324.269531h-174.972656v-102.402343h174.96875l-11.078125 49.859374c-.199219.882813-.199219 1.800782 0 2.683594zm0 0" fill="#d13838"/><path d="m444.03125 271.726562 11.082031-49.859374h-24.566406l-11.078125 49.859374c-.195312.882813-.195312 1.800782 0 2.683594l11.078125 49.855469h24.566406l-11.082031-49.855469c-.195312-.882812-.195312-1.800781 0-2.683594zm0 0" fill="#b83131"/><path d="m33.25 157.101562h256.882812v129.53125h-256.882812zm0 0" fill="#e24242"/><path d="m33.25 273.066406h256.882812v102.402344h-256.882812zm0 0" fill="#fdbf00"/><path d="m33.25 170.664062h256.882812v-96.21875c0-3.414062-2.765624-6.179687-6.179687-6.179687h-250.703125zm0 0" fill="#333"/><path d="m230.523438 375.464844-.109376 45.007812c-.003906 1.78125.75 3.382813 1.949219 4.511719l57.769531-49.515625zm0 0" fill="#fd7e00"/><path d="m8.53125 33.480469h34.132812v478.519531h-34.132812zm0 0" fill="#d9e7ec"/><path d="m17.941406 33.480469h24.726563v478.519531h-24.726563zm0 0" fill="#aad4ec"/><path d="m51.199219 25.601562c0 14.136719-11.460938 25.597657-25.597657 25.597657-14.140624 0-25.601562-11.460938-25.601562-25.597657 0-14.140624 11.460938-25.601562 25.601562-25.601562 14.136719 0 25.597657 11.460938 25.597657 25.601562zm0 0" fill="#d9e7ec"/><path d="m8.53125 127.195312h34.136719c4.265625 0 7.726562-3.460937 7.726562-7.726562 0-4.269531-3.460937-7.726562-7.726562-7.726562h-34.136719c-4.265625 0-7.726562 3.457031-7.726562 7.726562 0 4.265625 3.460937 7.726562 7.726562 7.726562zm0 0" fill="#1f1f1f"/><path d="m42.667969 316.539062h-34.136719c-4.265625 0-7.726562 3.457032-7.726562 7.726563 0 4.265625 3.460937 7.726563 7.726562 7.726563h34.136719c4.265625 0 7.726562-3.460938 7.726562-7.726563 0-4.269531-3.460937-7.726563-7.726562-7.726563zm0 0" fill="#fd7e00"/><g fill="#aad4ec"><path d="m25.601562 0c-3.667968 0-7.152343.777344-10.304687 2.164062 9.007813 3.964844 15.300781 12.964844 15.300781 23.4375 0 10.472657-6.292968 19.46875-15.300781 23.433594 3.152344 1.386719 6.636719 2.164063 10.304687 2.164063 14.136719 0 25.597657-11.460938 25.597657-25.597657 0-14.140624-11.460938-25.601562-25.597657-25.601562zm0 0"/><path d="m25.601562 0c-4.484374 0-8.699218 1.15625-12.363281 3.179688 7.890625 4.363281 13.238281 12.765624 13.238281 22.417968 0 9.65625-5.347656 18.058594-13.238281 22.417969 3.664063 2.027344 7.878907 3.183594 12.363281 3.183594 14.136719 0 25.597657-11.460938 25.597657-25.601563 0-14.136718-11.460938-25.597656-25.597657-25.597656zm0 0"/></g></svg>